# xmcd
#
# Track frame offsets:
#	150
#	9728
#	25353
#	42385
#	53264
#	66530
#	77820
#	95975
#	109278
#	125068
#	140982
#	158247
#	171481
#	181538
#	194916
#	208695
#	222659
#	233450
#	245691
#	258361
#	271880
#
# Disc length: 3761
#
# Revision: 2
# Processed by: cddbd v1.5.1PL0 Copyright (c) Steve Scherf et al.
# Submitted via: EasyCDDAExtractor 7.1.0.1
# Normalized: r1:DSETVAR1
#
DISCID=490eaf15
DTITLE=Various Artist - Acuff Rose Sampler - Disc 15
DYEAR=1900
DGENRE=
TTITLE0=Linda Ronstadt - When Will I Be Loved
TTITLE1=Travis Tritt - Where Corn Don't Grow
TTITLE2=Aaron Tippin - Where The Stars And Stripes And The Eagle Fly
TTITLE3=Hank Williams - Why Don't You Love Me
TTITLE4=Jerry Lee Lewis - Why You've Been Gone So Long
TTITLE5=Faron Young - Wine Me Up
TTITLE6=Mark Wills - Wish You Were Here
TTITLE7=Tanya Tucker - (Without You) What Do I Do With Me
TTITLE8=Aaron Tippin - Working Man's Ph.D.
TTITLE9=Roy Orbison - You Got It
TTITLE10=Kenny Chesney - You Had Me From Hello
TTITLE11=Jerry Lee Lewis - You Win Again
TTITLE12=Fats Domino - You Win Again
TTITLE13=Hank Williams - You're Gonna Change
TTITLE14=Aaron Tippin - You've Got To Stand For Something
TTITLE15=George Jones - You've Still Got A Place In My Heart
TTITLE16=Ricky Nelson - Young World
TTITLE17=Hank Williams - Your Cheatin' Heart
TTITLE18=Mark Chesnutt - Your Love Is A Miracle
TTITLE19=John Anderson - Your Lying Blue Eyes
TTITLE20=<<Compilation>> - Your Man Loves You, Honey
EXTD=
EXTT0=
EXTT1=
EXTT2=
EXTT3=
EXTT4=
EXTT5=
EXTT6=
EXTT7=
EXTT8=
EXTT9=
EXTT10=
EXTT11=
EXTT12=
EXTT13=
EXTT14=
EXTT15=
EXTT16=
EXTT17=
EXTT18=
EXTT19=
EXTT20=
PLAYORDER=
